<svg version="1" xmlns="http://www.w3.org/2000/svg" width="912" height="912" viewBox="0 0 684.000000 684.000000"><path d="M500 1.5c-1.9.8-13.4 5.3-25.5 10.1C462.4 16.3 450 21.5 447 23l-5.4 2.8 6.1 3.1c16.9 8.5 36.6 22.1 52.1 36l9 8.1h14.3l-.6-5.8c-.3-3.1-1-15.2-1.6-26.7-1.5-30.1-2-33.3-6.3-37.3-4-3.6-8.5-4.1-14.6-1.7zM174.7 2.8c-5.7 3.5-6.8 8-7.7 31.4-.5 11.7-.9 27.3-1 34.5V82h2.8c2.2 0 3.9-1.3 7.5-5.4 10.9-12.6 34.4-30.9 54.6-42.5 6.8-3.9 12.6-7.2 12.8-7.4.4-.5-31.2-15.3-45.5-21.3-11.6-4.9-18.5-5.7-23.5-2.6z"/><path d="M330 9.1C269.1 12.4 210.5 41.8 170.7 89c-27.1 32.2-44.7 71.4-51.3 114-2.5 16-2.5 48 0 64.5 11.4 75.3 57.4 138.4 125.1 171.6 62.5 30.6 136.5 30.6 199 0C511.1 406 556.8 343.4 568.6 268c2.5-15.9 2.5-49 0-65-14.2-92.1-79.7-164.7-169-187.5-22.1-5.6-44.9-7.7-69.6-6.4zm14 105.4c15.3 2.3 28.8 7.5 41.5 16 37.5 24.9 54.6 71.6 42 114.8-2.8 9.8-8.9 22.7-14 29.9L410 280l2.7 1.1c11.4 4.3 22.2 8.9 30.3 12.9 5.2 2.6 12.6 5.7 16.4 7 13.9 4.6 18.1 11.7 18.1 30.5-.1 14.3-2.9 24.6-8.4 29.8-5.7 5.5-15.6 8.2-30.6 8.2-10.9 0-12.5-.2-17.7-2.7-6.5-3-8.7-5.9-11.9-15.8-1.2-3.6-4.4-11-7.2-16.5-2.7-5.5-7-14.9-9.4-21-2.4-6-4.6-11.1-4.8-11.3-.2-.2-3 1.2-6.2 3.1-8 4.9-21.9 10.3-31.7 12.4-11.1 2.4-31.3 2.4-42.3 0-31.2-6.7-57.3-26.9-71.3-55.2-15.6-31.4-14.3-68.5 3.4-98.5 21.5-36.4 62.7-55.9 104.6-49.5z"/><path d="M317.5 146.1c-15.9 2.6-27.7 8.9-39.5 20.8-9.4 9.5-14.2 17.4-18.2 30.1-1.9 6.1-2.3 9.7-2.3 19.5 0 13.7 2 21.8 8.3 34 4.9 9.3 18.1 22.8 27.7 28.1 22.2 12.3 49.7 12 71.3-.8 7.5-4.4 20-16.9 24.6-24.5 13.4-22.4 13.4-51.2 0-73.6-4.6-7.6-17.1-20.1-24.6-24.5-13.9-8.2-32-11.7-47.3-9.1zM68.5 337.6c-31.9 2.9-59 5.3-60.2 5.4-1.6 0-2.3.6-2.3 2.1 0 1.8.4 2 4.3 1.5 7.7-1 78-5.5 113-7.2 7.5-.4 13.7-.9 13.7-1.1 0-.2-.7-1.7-1.5-3.3-1.3-2.6-2.1-3-5.3-2.9-2 .1-29.8 2.5-61.7 5.5zM550.6 338.9c-1.9 3.6-1.1 4.1 7.7 4.1 8.6 0 91 4.8 103.2 6 14.1 1.4 16.5 1.3 16.5-.5 0-.8-.6-1.5-1.4-1.5-.7 0-28.5-2.5-61.6-5.5s-60.9-5.5-61.6-5.5c-.7 0-2 1.3-2.8 2.9zM75.5 366c-37.9 7.1-69.1 12.9-69.2 13-.2 0-.3.7-.3 1.6 0 1.4.7 1.5 3.8 1 5.7-.9 92.8-13.2 117.5-16.5 12-1.6 22.1-3.2 22.4-3.5.5-.5-4.3-8.7-5-8.5-.1 0-31.2 5.9-69.2 12.9zM539.9 357.7c-1.2 1.9-2 3.5-1.8 3.7.2.2 9.9 1.1 21.4 2 40.6 3.3 58.9 5.7 88.4 11.8 10.6 2.1 19.5 3.7 19.7 3.5.6-.6-18.9-6.7-31.6-9.8-21.1-5.2-46.1-9.1-90.2-14.3-3.4-.4-4-.1-5.9 3.1zM81.3 422.4c-5.8 1.9-13.5 6.5-12.8 7.7.4.5 2.9 2.5 5.7 4.3 5.2 3.5 22 21.7 33.3 36.1 3.4 4.4 9.5 13.8 13.5 21 4 7.1 9.5 16 12.2 19.7 9 12.3 21.2 21.9 35.1 27.6 13 5.4 19.6 6.3 49.9 6.9l27.8.5v28.1c0 15.4.2 31.3.6 35.2.8 8.6-1.1 16.1-5.5 22.2-1.6 2.2-7.8 8.4-13.7 13.8-10.6 9.6-15 14.2-14.2 15 1.6 1.6 13.8 3.7 21.8 3.7 23 0 41.2-12.9 48.2-34.1 2.1-6.3 2.2-8.7 2.8-58.1l.7-51.5 3.5-10.5c3.4-10.4 3.5-10.5 6.4-10.2 1.6.2 3.2.6 3.5 1 .4.4.2 4.5-.3 9.2-.5 4.8-.7 24.7-.4 45.5.6 39.9-.3 59.6-3.4 77-2.8 16-8.7 34.2-15.1 46.7-1.1 2.2-1.9 4.1-1.7 4.3.6.5 23.3-4.5 27.8-6.1 14.4-5.4 25.6-18 31.1-34.9 2-6.4 2.3-9.8 3-40 .4-18.2.8-46.8.8-63.6.1-28.6.6-35.5 3.1-44.9 1-3.6 1.2-3.7 4.3-3.1l3.2.7.7 8.4c.4 4.7 1.2 36.4 1.8 70.5 1.1 67.8 1.3 70.6 7.1 82.4 8.7 17.7 32.2 31 48.4 27.4l4-.9-.3-5c-.2-3.8-1.1-6.2-4.1-10.4-5.9-8.5-9-15.2-11.2-24.5-1.9-8.2-2-11.2-1.7-74.1.3-70.6.1-67.3 5.4-67.4 1.8 0 2.3 1.2 4.2 9.2 3.7 16.1 4.1 22.2 4.6 70.8.4 43.2.6 48.1 2.4 53.6 8.3 26.6 39.4 39.8 66.4 28.2 2.6-1.1 4.8-2.3 4.8-2.7 0-.3-3.2-2.6-7.1-5-8.8-5.4-17.2-13.1-20.4-18.5-5.5-9.5-5.6-10.9-5.9-71.8-.2-59.9-.7-67-5.3-82.8-2.5-8.6-8.5-21.1-12.8-26.4l-2.3-2.9-13.9 4.5c-45.6 15.2-93.5 15.9-140.1 2.1-6.7-1.9-12.4-3.4-12.6-3.2-.2.2-3.8 6.9-8.1 14.9-4.4 8-9.3 15.9-11 17.6-6.5 6.7-30.4 11.4-47.7 9.5-11.5-1.3-18.4-3.3-27.1-7.9-8.8-4.6-15.4-10.5-23.4-21.2-13.8-18.4-31.9-36.3-41.8-41.4-7-3.5-17.4-4.4-24.2-2.2z"/></svg>