<?xml version="1.0" encoding="utf-8"?>
<!-- Generator: Adobe Illustrator 19.0.0, SVG Export Plug-In . SVG Version: 6.00 Build 0)  -->
<svg version="1.1" id="Layer_1" xmlns="http://www.w3.org/2000/svg" xmlns:xlink="http://www.w3.org/1999/xlink" x="0px" y="0px"
	 viewBox="0 0 167.6 170.6" style="enable-background:new 0 0 167.6 170.6;" xml:space="preserve">
<style type="text/css">
	.st0{fill:#D41F26;}
	.st1{fill:#D41F26;stroke:#FFFFFF;stroke-miterlimit:10;}
	.st2{fill:none;stroke:#FFFFFF;stroke-width:8;stroke-miterlimit:10;}
	.st3{fill:#FFFFFF;}
</style>
<g id="XMLID_1_">
	<path id="XMLID_8_" class="st0" d="M39.8,20.5c0.2-5.4,0.2-10.8,0.5-16.2c0.2-4,3.1-4.9,6.2-3.6C51.8,2.9,57,5.5,62.3,7.9
		c1.3,0.6,2.8,1.2,4.1,0.9C77.9,6,89.4,5.9,101,8c2.5,0.5,4.5-0.1,6.7-1.2c5.1-2.5,10.4-4.5,15.7-6.5c2.5-0.9,4.4,0.3,4.6,2.9
		c0.5,5,0.5,10,0.9,15"/>
	<path id="XMLID_7_" class="st0" d="M128.4,62c0.2,7.1-0.3,14.2-0.5,21c12.9,1.2,26.3,2.4,39.7,3.6c0,0.3,0,0.5,0,0.8
		c-2.7-0.2-5.3-0.5-8-0.7c-10.2-0.6-20.4-1.2-30.6-1.6c-1.2,0-2.5,1.1-3.5,2.3c14,1.8,27.9,2.4,41,7.5c-5.3-1-10.5-2.4-15.8-3
		c-7.8-1-15.6-1.5-23.4-2.1c-1.1-0.1-2.7,0.5-3.2,1.3c-5.7,10.3-15.4,14-26.2,16"/>
	<path id="XMLID_6_" class="st0" d="M77.4,108.6c-11.8-2.4-22.2-7.2-29.3-17.6c-0.7-1.1-3-1.9-4.4-1.7c-13.5,1.7-26.9,3.6-40.3,5.5
		c-1.1,0.2-2.3,0.4-3.4,0.6c0-0.3,0-0.6,0-0.9c15.1-2.8,30.3-5.6,46-8.5c-1.4-0.7-2.8-2-4.2-2c-11.3,0.5-22.5,1.2-33.8,1.9
		c-2.7,0.2-5.4,0.4-8.1,0.6c0-0.3,0-0.6,0-0.9c14.5-1.3,29.1-2.6,43.7-3.9c0-0.3,0-0.8-0.1-1.2"/>
	<path id="XMLID_18_" class="st0" d="M112.5,107.5c-2.9,0.5-5.9,0.9-9.7,1.5c8.1,6.4,8.3,15,8.4,23.6c0,6,0.3,12-0.1,17.9
		c-0.3,4.9,1.1,8.7,5.3,11.3c1,0.6,2,1.3,3.3,2.1c-8.4,4.8-18.3-0.7-18.5-9.2c-0.2-7.3,0-14.7-0.2-22c-0.1-2.9-1-5.7-1.6-8.5
		c-0.5,0.1-1,0.1-1.5,0.2c-0.1,1.1-0.4,2.2-0.4,3.2c0,8.4,0.1,16.8-0.1,25.2c-0.1,4.9,0.5,9.4,3.8,13.3c0.7,0.8,0.6,2.2,0.9,3.3
		c-1.3,0.2-2.6,0.7-3.8,0.5c-6.5-1.6-10.7-6.2-11-13c-0.4-9.8-0.4-19.6-0.5-29.4c0-1.6-0.2-3.3-0.3-4.9c-0.6-0.1-1.1-0.2-1.7-0.3
		c-0.3,1.4-0.9,2.8-0.9,4.2c-0.2,9.5-0.2,19-0.3,28.4c-0.1,5.9-2.2,10.9-7.6,13.7c-2.2,1.1-4.9,1.2-8.1,2c8.6-15.6,3.8-31,5.6-45.8
		c-0.6-0.1-1.2-0.2-1.7-0.4c-0.6,2.2-1.7,4.4-1.8,6.6c-0.3,7.3-0.1,14.7-0.2,22c0,9.4-8.9,15.3-18.3,11.7c2.9-4.2,9.3-6,8.5-12.7
		c-0.6-5.1-0.1-10.3-0.1-15.9c-3.2,0-6-0.1-8.8,0c-10.6,0.4-17.9-4.1-22.6-13.9c-2.3-4.7-6.5-8.6-10-12.7c-0.8-1-2.3-1.3-3.2-2.4
		c5-3.5,9-2.3,12.3,0.7c3.1,2.7,5.9,5.9,8.2,9.2c5.4,7.8,16.5,7.6,22.8,5c1-0.4,1.8-1.5,2.3-2.4c1.9-3.4,3.7-6.9,5.8-10.7
		c-2.6-0.5-5.6-0.9-8.6-1.6"/>
	<g id="XMLID_19_">
		<circle id="XMLID_4_" class="st1" cx="84.3" cy="58.7" r="57.1"/>
		<circle id="XMLID_2_" class="st2" cx="80.4" cy="54" r="21.8"/>
		<g id="XMLID_3_">
			<path id="XMLID_15_" class="st3" d="M94.6,67.9c0,0,0.5,0.1,1.5,0.4c0.5,0.1,1,0.3,1.6,0.5c0.6,0.2,1.3,0.4,2.1,0.7
				c0.7,0.3,1.5,0.6,2.4,0.9c0.9,0.3,1.7,0.7,2.6,1c0.9,0.4,1.8,0.8,2.7,1.2c0.9,0.4,1.8,0.9,2.7,1.4c0.9,0.5,1.9,0.8,2.9,1.1
				c1,0.3,2,0.6,2.7,1.3c0.7,0.6,1.1,1.4,1.4,2.3c0.3,0.9,0.4,1.8,0.5,2.8c0.1,0.9,0,1.9-0.1,2.9c-0.1,0.5-0.1,0.9-0.2,1.3
				c-0.1,0.5-0.2,0.9-0.3,1.2c-0.1,0.4-0.2,0.8-0.3,1.1c-0.1,0.3-0.2,0.6-0.3,0.8c-0.2,0.5-0.3,0.7-0.3,0.7l-1.3,1.3
				c0,0-0.3,0.1-0.7,0.3c-0.3,0.1-0.5,0.2-0.8,0.3c-0.3,0.1-0.7,0.2-1.1,0.3c-0.4,0.1-0.8,0.2-1.2,0.3c-0.4,0.1-0.9,0.1-1.3,0.2
				c-0.9,0.1-1.9,0.2-2.9,0.1c-1-0.1-1.9-0.2-2.8-0.5c-0.9-0.3-1.7-0.7-2.3-1.4c-0.6-0.7-0.9-1.6-1.3-2.7c-0.3-1-0.6-2.1-1.1-2.9
				c-0.5-0.9-0.9-1.8-1.4-2.7c-0.4-0.9-0.8-1.8-1.2-2.7c-0.4-0.9-0.7-1.8-1-2.6c-0.3-0.8-0.6-1.6-0.9-2.4c-0.3-0.7-0.5-1.5-0.7-2.1
				c-0.2-0.6-0.4-1.2-0.5-1.6c-0.3-0.9-0.4-1.5-0.4-1.5L94.6,67.9z"/>
		</g>
	</g>
</g>
</svg>
